[quote][img]http://img189.imageshack.us/img189/3374/princeofpersiabluraycov.jpg[/img]
[img]http://img24.imageshack.us/img24/7453/infohr.png[/img]
General

Complete name                    : Prince of  Persia 2010 BRRip Hindi[~HFR~]
Format                           : Matroska
Format version                   : Version 2
File size                        : 438 MiB
Duration                         : 1h 46mn

Video
ID                               : 1
Format                           : AVC
Format/Info                      : Advanced Video Codec
Format profile                   : Main@L3.0
Format settings, CABAC           : Yes
Format settings, ReFrames        : 4 frames
Muxing mode                      : Header stripping
Codec ID                         : V_MPEG4/ISO/AVC
Duration                         : 1h 46mn
Bit rate                         : 500 Kbps
Width                            : 720 pixels
Height                           : 464 pixels
Display aspect ratio             : 2.40:1
Frame rate mode                  : Variable
Frame rate                       : 25.000 fps
Color space                      : YUV
Chroma subsampling               : 4:2:0
Bit depth                        : 8 bits
Scan type                        : Progressive
Bits/(Pixel*Frame)               : 0.060
Stream size                      : 368 MiB (84%)


Audio
ID                               : 2
Format                           : MPEG Audio
Format version                   : Version 1
Format profile                   : Layer 3
Mode                             : Joint stereo
Muxing mode                      : Header stripping
Codec ID                         : A_MPEG/L3
Codec ID/Hint                    : MP3
Duration                         : 1h 46mn
Bit rate mode                    : Constant
Bit rate                         : 80.0 Kbps
Channel(s)                       : 2 channels
Sampling rate                    : 32.0 KHz
Compression mode                 : Lossy
Stream size                      : 61.0 MiB (14%)
Title                            : [~HFR~]
Language                         : Hindi

Text
ID                               : 3
Format                           : UTF-8
Codec ID                         : S_TEXT/UTF8
Codec ID/Info                    : UTF-8 Plain Text
Title                            : [~HFR~]
Language                         : English
[img]http://img4.imageshack.us/img4/959/plotbi.png[/img]
Set in the mystical lands of Persia, a rogue prince and a mysterious princess race against dark forces to safeguard an ancient dagger capable of releasing the Sands of Time -- a gift from the gods that can reverse time and allow its possessor to rule the world. 
[img]http://img546.imageshack.us/img546/3949/imdblogoy.png[/img]
[url]http://www.imdb.com/title/tt0473075/[/url]

[img]http://img696.imageshack.us/img696/9545/castec.png[/img]
Director:
Mike Newell
Writers:
Boaz Yakin (screenplay), Doug Miro (screenplay), and 3 more credits »
Stars:
Jake Gyllenhaal, Gemma Arterton and Ben Kingsley 
[img]http://img846.imageshack.us/img846/4092/boxx.jpg[/img]
Budget:
$200,000,000 (estimated)
Opening Weekend:
£1,371,066 (UK) (23 May 2010) (468 Screens)
Gross:
$90,755,643 (USA) (19 September 2010) 
[img]http://img31.imageshack.us/img31/640/screendta.png[/img]
[img]http://img830.imageshack.us/img830/4703/vlcsnap2011101209h09m35.png[/img]
[img]http://img51.imageshack.us/img51/4492/vlcsnap2011101209h11m12.png[/img]
[img]http://img27.imageshack.us/img27/9577/vlcsnap2011101209h11m17.png[/img]
[img]http://img819.imageshack.us/img819/6541/vlcsnap2011101209h12m11.png[/img]
[img]http://img40.imageshack.us/img40/4254/vlcsnap2011101209h12m38.png[/img]
[img]http://img830.imageshack.us/img830/855/princeofpersia2010brrip.jpg[/img]

[img]http://img14.imageshack.us/img14/6105/hiee.gif[/img]
[img]http://img98.imageshack.us/img98/4050/seedv.gif[/img]
[img]http://img855.imageshack.us/img855/6715/91555204.png[/img]